{"asset": {"version": "2.0", "generator": "TravelerGuide-yubeng-peak"}, "buffers": [{"uri": "data:application/octet-stream;base64,", "byteLength": 96}], "bufferViews": [{"buffer": 0, "byteOffset": 0, "byteLength": 60, "target": 34962}, {"buffer": 0, "byteOffset": 60, "byteLength": 36, "target": 34963}], "accessors": [{"bufferView": 0, "componentType": 5126, "count": 5, "type": "VEC3", "min": [-1.0, 0.0, -1.0], "max": [1.0, 1.6, 1.0]}, {"bufferView": 1, "componentType": 5123, "count": 18, "type": "SCALAR"}], "materials": [{"pbrMetallicRoughness": {"baseColorFactor": [0.91, 0.27, 0.38, 1.0], "metallicFactor": 0.1, "roughnessFactor": 0.7}}], "meshes": [{"primitives": [{"attributes": {"POSITION": 0}, "indices": 1, "material": 0}]}], "nodes": [{"mesh": 0}], "scenes": [{"nodes": [0]}], "scene": 0}